# MagicaVoxel @ Ephtracy

# group
g baum3

# material
mtllib baum3.mtl
usemtl palette

# normals
vn -1 0 0
vn 1 0 0
vn 0 0 1
vn 0 0 -1
vn 0 -1 0
vn 0 1 0

# texcoords
vt 0.533203 0.5
vt 0.767578 0.5

# verts
v -6 15 -0
v -6 15 -1
v -6 18 -1
v -6 18 -2
v -6 22 -0
v -6 22 -2
v -5 13 -3
v -5 13 -4
v -5 21 -2
v -5 21 -3
v -5 22 -0
v -5 22 -2
v -5 22 -3
v -5 22 -4
v -5 23 -0
v -5 23 -3
v -4 19 -0
v -4 19 -2
v -4 20 1
v -4 20 -0
v -4 20 -2
v -4 23 -0
v -4 23 -3
v -4 24 1
v -4 24 -3
v -3 12 -4
v -3 12 -5
v -3 14 3
v -3 14 2
v -3 15 -0
v -3 15 -2
v -3 19 1
v -3 19 -0
v -3 19 -2
v -3 19 -3
v -3 20 2
v -3 20 1
v -3 20 -0
v -3 20 -2
v -3 20 -3
v -3 20 -4
v -3 22 3
v -3 22 2
v -3 22 -2
v -3 22 -3
v -3 22 -4
v -3 22 -5
v -3 23 2
v -3 23 1
v -3 23 -3
v -3 23 -4
v -3 24 -0
v -3 24 -2
v -3 25 -0
v -3 25 -2
v -2 14 -0
v -2 14 -2
v -2 15 -0
v -2 15 -2
v -1 2 1
v -1 2 -0
v -1 4 2
v -1 4 1
v -1 8 -0
v -1 8 -1
v -1 9 2
v -1 9 1
v -1 9 -1
v -1 9 -2
v -1 10 1
v -1 10 -0
v -1 12 -1
v -1 12 -2
v -1 13 -1
v -1 13 -2
v -1 14 -0
v -1 14 -2
v 0 12 2
v 0 12 1
v 0 17 -3
v 0 17 -4
v 0 20 1
v 0 20 -0
v 0 21 1
v 0 21 -0
v 0 21 -3
v 0 22 2
v 0 22 1
v 0 22 -3
v 0 22 -4
v 1 15 -1
v 1 15 -2
v 1 19 -0
v 1 19 -1
v 1 20 -0
v 1 20 -2
v -5 15 -0
v -5 15 -1
v -5 18 -1
v -5 18 -2
v -5 20 -0
v -5 20 -2
v -4 13 -3
v -4 13 -4
v -4 21 -2
v -4 21 -3
v -4 22 -2
v -4 22 -3
v -4 22 -4
v -2 12 -4
v -2 12 -5
v -2 14 3
v -2 14 2
v -2 18 -4
v -2 18 -5
v -2 19 3
v -2 19 2
v -1 16 -0
v -1 16 -2
v -1 18 -4
v -1 18 -5
v -1 19 3
v -1 19 2
v -1 19 1
v -1 19 -0
v -1 19 -2
v -1 19 -3
v -1 20 2
v -1 20 1
v -1 20 -0
v -1 20 -2
v -1 20 -3
v -1 20 -4
v -1 21 1
v -1 21 -0
v -1 21 -2
v -1 21 -3
v -1 22 3
v -1 22 2
v -1 22 1
v -1 22 -4
v -1 22 -5
v -1 23 -3
v -1 23 -4
v -1 24 -0
v -1 24 -2
v -1 25 -0
v -1 25 -2
v 0 15 -0
v 0 15 -2
v 0 16 -0
v 0 16 -2
v 0 19 -0
v 0 19 -2
v 0 20 -0
v 0 20 -2
v 0 23 1
v 0 23 -3
v 0 24 1
v 0 24 -3
v 1 2 1
v 1 2 -0
v 1 4 2
v 1 4 1
v 1 8 -0
v 1 8 -1
v 1 9 2
v 1 9 1
v 1 9 -1
v 1 9 -2
v 1 10 1
v 1 10 -0
v 1 12 2
v 1 12 1
v 1 12 -1
v 1 12 -2
v 1 13 -1
v 1 13 -2
v 1 14 -1
v 1 14 -2
v 1 15 -0
v 1 15 -1
v 1 17 -3
v 1 17 -4
v 1 20 1
v 1 20 -0
v 1 21 -2
v 1 21 -3
v 1 22 -0
v 1 22 -2
v 1 22 -3
v 1 22 -4
v 1 23 2
v 1 23 -3
v 2 14 -1
v 2 14 -2
v 2 19 -0
v 2 19 -1
v 2 22 -0
v 2 22 -2
v -3 14 3
v -3 22 3
v -2 14 3
v -2 19 3
v -1 19 3
v -1 22 3
v -3 22 2
v -3 23 2
v -1 4 2
v -1 9 2
v -1 22 2
v 0 12 2
v 0 22 2
v 1 4 2
v 1 9 2
v 1 12 2
v 1 23 2
v -4 20 1
v -4 24 1
v -3 19 1
v -3 20 1
v -3 23 1
v -1 2 1
v -1 4 1
v -1 9 1
v -1 10 1
v -1 19 1
v -1 20 1
v -1 21 1
v -1 22 1
v 0 21 1
v 0 22 1
v 0 23 1
v 0 24 1
v 1 2 1
v 1 4 1
v 1 9 1
v 1 10 1
v -6 15 -0
v -6 22 -0
v -5 15 -0
v -5 20 -0
v -5 22 -0
v -5 23 -0
v -4 19 -0
v -4 20 -0
v -4 23 -0
v -3 15 -0
v -3 19 -0
v -3 20 -0
v -3 24 -0
v -3 25 -0
v -2 14 -0
v -2 15 -0
v -1 10 -0
v -1 14 -0
v -1 16 -0
v -1 19 -0
v -1 20 -0
v -1 21 -0
v -1 24 -0
v -1 25 -0
v 0 15 -0
v 0 16 -0
v 0 19 -0
v 0 20 -0
v 0 21 -0
v 1 10 -0
v 1 15 -0
v 1 19 -0
v 1 20 -0
v 1 22 -0
v 2 19 -0
v 2 22 -0
v 1 14 -1
v 1 15 -1
v 1 19 -1
v 2 14 -1
v 2 19 -1
v -5 13 -3
v -5 21 -3
v -4 13 -3
v -4 21 -3
v 0 17 -3
v 0 21 -3
v 1 17 -3
v 1 21 -3
v -3 12 -4
v -3 20 -4
v -2 12 -4
v -2 18 -4
v -1 18 -4
v -1 20 -4
v -3 14 2
v -3 20 2
v -2 14 2
v -2 19 2
v -1 19 2
v -1 20 2
v 0 12 1
v 0 20 1
v 1 12 1
v 1 20 1
v -1 2 -0
v -1 8 -0
v 1 2 -0
v 1 8 -0
v -6 15 -1
v -6 18 -1
v -5 15 -1
v -5 18 -1
v -1 8 -1
v -1 9 -1
v -1 12 -1
v -1 13 -1
v 1 8 -1
v 1 9 -1
v 1 12 -1
v 1 13 -1
v -6 18 -2
v -6 22 -2
v -5 18 -2
v -5 20 -2
v -5 21 -2
v -5 22 -2
v -4 19 -2
v -4 20 -2
v -4 21 -2
v -4 22 -2
v -3 15 -2
v -3 19 -2
v -3 20 -2
v -3 22 -2
v -3 24 -2
v -3 25 -2
v -2 14 -2
v -2 15 -2
v -1 9 -2
v -1 12 -2
v -1 13 -2
v -1 14 -2
v -1 16 -2
v -1 19 -2
v -1 20 -2
v -1 21 -2
v -1 24 -2
v -1 25 -2
v 0 15 -2
v 0 16 -2
v 0 19 -2
v 0 20 -2
v 1 9 -2
v 1 12 -2
v 1 13 -2
v 1 14 -2
v 1 15 -2
v 1 20 -2
v 1 21 -2
v 1 22 -2
v 2 14 -2
v 2 22 -2
v -5 22 -3
v -5 23 -3
v -4 22 -3
v -4 23 -3
v -4 24 -3
v -3 19 -3
v -3 20 -3
v -3 22 -3
v -3 23 -3
v -1 19 -3
v -1 20 -3
v -1 21 -3
v -1 23 -3
v 0 21 -3
v 0 22 -3
v 0 23 -3
v 0 24 -3
v 1 22 -3
v 1 23 -3
v -5 13 -4
v -5 22 -4
v -4 13 -4
v -4 22 -4
v -3 22 -4
v -3 23 -4
v -1 22 -4
v -1 23 -4
v 0 17 -4
v 0 22 -4
v 1 17 -4
v 1 22 -4
v -3 12 -5
v -3 22 -5
v -2 12 -5
v -2 18 -5
v -1 18 -5
v -1 22 -5
v -1 2 1
v 1 2 1
v -1 2 -0
v 1 2 -0
v -1 4 2
v 1 4 2
v -1 4 1
v 1 4 1
v -1 8 -0
v 1 8 -0
v -1 8 -1
v 1 8 -1
v -1 9 -1
v 1 9 -1
v -1 9 -2
v 1 9 -2
v 0 12 2
v 1 12 2
v 0 12 1
v 1 12 1
v -3 12 -4
v -2 12 -4
v -3 12 -5
v -2 12 -5
v -1 13 -1
v 1 13 -1
v -1 13 -2
v 1 13 -2
v -5 13 -3
v -4 13 -3
v -5 13 -4
v -4 13 -4
v -3 14 3
v -2 14 3
v -3 14 2
v -2 14 2
v -2 14 -0
v -1 14 -0
v 1 14 -1
v 2 14 -1
v -2 14 -2
v -1 14 -2
v 1 14 -2
v 2 14 -2
v -6 15 -0
v -5 15 -0
v -3 15 -0
v -2 15 -0
v -6 15 -1
v -5 15 -1
v -3 15 -2
v -2 15 -2
v 0 17 -3
v 1 17 -3
v 0 17 -4
v 1 17 -4
v -6 18 -1
v -5 18 -1
v -6 18 -2
v -5 18 -2
v -2 18 -4
v -1 18 -4
v -2 18 -5
v -1 18 -5
v -2 19 3
v -1 19 3
v -2 19 2
v -1 19 2
v -3 19 1
v -1 19 1
v -4 19 -0
v -3 19 -0
v -1 19 -0
v 0 19 -0
v 1 19 -0
v 2 19 -0
v 1 19 -1
v 2 19 -1
v -4 19 -2
v -3 19 -2
v -1 19 -2
v 0 19 -2
v -3 19 -3
v -1 19 -3
v -3 20 2
v -1 20 2
v -4 20 1
v -3 20 1
v -1 20 1
v 0 20 1
v 1 20 1
v -5 20 -0
v -4 20 -0
v -3 20 -0
v 0 20 -0
v 1 20 -0
v -5 20 -2
v -4 20 -2
v 0 20 -2
v 1 20 -2
v -3 20 -3
v -1 20 -3
v -3 20 -4
v -1 20 -4
v -1 21 1
v 0 21 1
v -1 21 -0
v 0 21 -0
v -5 21 -2
v -4 21 -2
v -1 21 -2
v 1 21 -2
v -5 21 -3
v -4 21 -3
v -1 21 -3
v 0 21 -3
v 1 21 -3
v -1 22 2
v 0 22 2
v -1 22 1
v 0 22 1
v -4 22 -2
v -3 22 -2
v -4 22 -3
v -3 22 -3
v -1 9 2
v 1 9 2
v -1 9 1
v 1 9 1
v -1 10 1
v 1 10 1
v -1 10 -0
v 1 10 -0
v -1 12 -1
v 1 12 -1
v -1 12 -2
v 1 12 -2
v 0 15 -0
v 1 15 -0
v 1 15 -1
v 0 15 -2
v 1 15 -2
v -1 16 -0
v 0 16 -0
v -1 16 -2
v 0 16 -2
v -3 22 3
v -1 22 3
v -3 22 2
v -1 22 2
v -6 22 -0
v -5 22 -0
v 1 22 -0
v 2 22 -0
v -6 22 -2
v -5 22 -2
v 1 22 -2
v 2 22 -2
v -5 22 -3
v -4 22 -3
v 0 22 -3
v 1 22 -3
v -5 22 -4
v -4 22 -4
v -3 22 -4
v -1 22 -4
v 0 22 -4
v 1 22 -4
v -3 22 -5
v -1 22 -5
v -3 23 2
v 1 23 2
v -3 23 1
v 0 23 1
v -5 23 -0
v -4 23 -0
v -5 23 -3
v -4 23 -3
v -3 23 -3
v -1 23 -3
v 0 23 -3
v 1 23 -3
v -3 23 -4
v -1 23 -4
v -4 24 1
v 0 24 1
v -3 24 -0
v -1 24 -0
v -3 24 -2
v -1 24 -2
v -4 24 -3
v 0 24 -3
v -3 25 -0
v -1 25 -0
v -3 25 -2
v -1 25 -2

# faces
f 3/2/1 2/2/1 1/2/1
f 5/2/1 3/2/1 1/2/1
f 5/2/1 4/2/1 3/2/1
f 6/2/1 4/2/1 5/2/1
f 10/2/1 8/2/1 7/2/1
f 12/2/1 10/2/1 9/2/1
f 13/2/1 8/2/1 10/2/1
f 13/2/1 10/2/1 12/2/1
f 14/2/1 8/2/1 13/2/1
f 15/2/1 12/2/1 11/2/1
f 15/2/1 13/2/1 12/2/1
f 16/2/1 13/2/1 15/2/1
f 20/1/1 18/1/1 17/1/1
f 21/1/1 18/1/1 20/1/1
f 22/2/1 20/2/1 19/2/1
f 24/2/1 22/2/1 19/2/1
f 24/2/1 23/2/1 22/2/1
f 25/2/1 23/2/1 24/2/1
f 33/1/1 31/1/1 30/1/1
f 34/1/1 31/1/1 33/1/1
f 36/2/1 29/2/1 28/2/1
f 37/1/1 33/1/1 32/1/1
f 38/1/1 33/1/1 37/1/1
f 39/1/1 35/1/1 34/1/1
f 40/1/1 35/1/1 39/1/1
f 41/2/1 27/2/1 26/2/1
f 42/2/1 36/2/1 28/2/1
f 42/2/1 37/2/1 36/2/1
f 43/2/1 37/2/1 42/2/1
f 44/2/1 40/2/1 39/2/1
f 44/2/1 41/2/1 40/2/1
f 45/2/1 41/2/1 44/2/1
f 46/2/1 27/2/1 41/2/1
f 46/2/1 41/2/1 45/2/1
f 47/2/1 27/2/1 46/2/1
f 48/2/1 37/2/1 43/2/1
f 49/2/1 37/2/1 48/2/1
f 50/2/1 46/2/1 45/2/1
f 51/2/1 46/2/1 50/2/1
f 54/2/1 53/2/1 52/2/1
f 55/2/1 53/2/1 54/2/1
f 58/1/1 57/1/1 56/1/1
f 59/1/1 57/1/1 58/1/1
f 63/1/1 61/1/1 60/1/1
f 64/1/1 61/1/1 63/1/1
f 64/1/1 63/1/1 62/1/1
f 66/1/1 64/1/1 62/1/1
f 66/1/1 65/1/1 64/1/1
f 67/1/1 65/1/1 66/1/1
f 68/1/1 65/1/1 67/1/1
f 70/1/1 69/1/1 68/1/1
f 70/1/1 68/1/1 67/1/1
f 71/1/1 69/1/1 70/1/1
f 72/1/1 69/1/1 71/1/1
f 73/1/1 69/1/1 72/1/1
f 74/1/1 72/1/1 71/1/1
f 76/1/1 74/1/1 71/1/1
f 76/1/1 75/1/1 74/1/1
f 77/1/1 75/1/1 76/1/1
f 82/2/1 79/2/1 78/2/1
f 84/2/1 82/2/1 78/2/1
f 84/2/1 83/2/1 82/2/1
f 85/2/1 83/2/1 84/2/1
f 86/2/1 81/2/1 80/2/1
f 87/2/1 84/2/1 78/2/1
f 88/2/1 84/2/1 87/2/1
f 89/2/1 81/2/1 86/2/1
f 90/2/1 81/2/1 89/2/1
f 94/2/1 92/2/1 91/2/1
f 95/2/1 94/2/1 93/2/1
f 96/2/1 92/2/1 94/2/1
f 96/2/1 94/2/1 95/2/1
f 97/2/2 98/2/2 99/2/2
f 97/2/2 99/2/2 101/2/2
f 99/2/2 100/2/2 101/2/2
f 101/2/2 100/2/2 102/2/2
f 103/2/2 104/2/2 106/2/2
f 105/2/2 106/2/2 107/2/2
f 106/2/2 104/2/2 108/2/2
f 107/2/2 106/2/2 108/2/2
f 108/2/2 104/2/2 109/2/2
f 110/2/2 111/2/2 114/2/2
f 114/2/2 111/2/2 115/2/2
f 112/2/2 113/2/2 116/2/2
f 116/2/2 113/2/2 117/2/2
f 118/1/2 119/1/2 125/1/2
f 125/1/2 119/1/2 126/1/2
f 122/2/2 123/2/2 128/2/2
f 124/1/2 125/1/2 129/1/2
f 129/1/2 125/1/2 130/1/2
f 126/1/2 127/1/2 131/1/2
f 131/1/2 127/1/2 132/1/2
f 120/2/2 121/2/2 133/2/2
f 129/2/2 130/2/2 134/2/2
f 128/2/2 129/2/2 134/2/2
f 134/2/2 130/2/2 135/2/2
f 132/2/2 133/2/2 136/2/2
f 131/2/2 132/2/2 136/2/2
f 136/2/2 133/2/2 137/2/2
f 128/2/2 134/2/2 138/2/2
f 122/2/2 128/2/2 138/2/2
f 138/2/2 134/2/2 139/2/2
f 139/2/2 134/2/2 140/2/2
f 137/2/2 133/2/2 141/2/2
f 133/2/2 121/2/2 141/2/2
f 141/2/2 121/2/2 142/2/2
f 137/2/2 141/2/2 143/2/2
f 143/2/2 141/2/2 144/2/2
f 145/2/2 146/2/2 147/2/2
f 147/2/2 146/2/2 148/2/2
f 149/1/2 150/1/2 151/1/2
f 151/1/2 150/1/2 152/1/2
f 153/1/2 154/1/2 155/1/2
f 155/1/2 154/1/2 156/1/2
f 157/2/2 158/2/2 159/2/2
f 159/2/2 158/2/2 160/2/2
f 161/1/2 162/1/2 164/1/2
f 164/1/2 162/1/2 165/1/2
f 163/1/2 164/1/2 165/1/2
f 163/1/2 165/1/2 167/1/2
f 165/1/2 166/1/2 167/1/2
f 167/1/2 166/1/2 168/1/2
f 168/1/2 166/1/2 169/1/2
f 169/1/2 170/1/2 171/1/2
f 168/1/2 169/1/2 171/1/2
f 171/1/2 170/1/2 172/1/2
f 172/1/2 170/1/2 175/1/2
f 175/1/2 170/1/2 176/1/2
f 172/1/2 175/1/2 177/1/2
f 172/1/2 177/1/2 179/1/2
f 177/1/2 178/1/2 179/1/2
f 179/1/2 178/1/2 180/1/2
f 172/1/2 179/1/2 181/1/2
f 181/1/2 179/1/2 182/1/2
f 173/2/2 174/2/2 185/2/2
f 183/2/2 184/2/2 188/2/2
f 185/2/2 186/2/2 189/2/2
f 187/2/2 188/2/2 190/2/2
f 188/2/2 184/2/2 191/2/2
f 190/2/2 188/2/2 191/2/2
f 191/2/2 184/2/2 192/2/2
f 185/2/2 189/2/2 193/2/2
f 173/2/2 185/2/2 193/2/2
f 190/2/2 191/2/2 193/2/2
f 189/2/2 190/2/2 193/2/2
f 193/2/2 191/2/2 194/2/2
f 195/2/2 196/2/2 198/2/2
f 197/2/2 198/2/2 199/2/2
f 198/2/2 196/2/2 200/2/2
f 199/2/2 198/2/2 200/2/2
f 203/2/3 202/2/3 201/2/3
f 204/2/3 202/2/3 203/2/3
f 205/2/3 202/2/3 204/2/3
f 206/2/3 202/2/3 205/2/3
f 211/2/3 208/2/3 207/2/3
f 213/2/3 208/2/3 211/2/3
f 214/1/3 210/1/3 209/1/3
f 215/1/3 210/1/3 214/1/3
f 216/2/3 213/2/3 212/2/3
f 217/2/3 208/2/3 213/2/3
f 217/2/3 213/2/3 216/2/3
f 221/2/3 219/2/3 218/2/3
f 222/2/3 219/2/3 221/2/3
f 227/1/3 221/1/3 220/1/3
f 228/1/3 221/1/3 227/1/3
f 231/2/3 230/2/3 229/2/3
f 232/2/3 230/2/3 231/2/3
f 233/2/3 219/2/3 222/2/3
f 234/2/3 219/2/3 233/2/3
f 235/1/3 224/1/3 223/1/3
f 236/1/3 224/1/3 235/1/3
f 237/1/3 226/1/3 225/1/3
f 238/1/3 226/1/3 237/1/3
f 241/2/3 240/2/3 239/2/3
f 242/2/3 240/2/3 241/2/3
f 243/2/3 240/2/3 242/2/3
f 246/2/3 244/2/3 243/2/3
f 246/2/3 243/2/3 242/2/3
f 247/2/3 244/2/3 246/2/3
f 249/1/3 246/1/3 245/1/3
f 250/1/3 246/1/3 249/1/3
f 254/1/3 249/1/3 248/1/3
f 256/1/3 254/1/3 253/1/3
f 257/1/3 249/1/3 254/1/3
f 257/1/3 254/1/3 256/1/3
f 258/1/3 249/1/3 257/1/3
f 261/2/3 252/2/3 251/2/3
f 262/2/3 252/2/3 261/2/3
f 263/1/3 256/1/3 255/1/3
f 263/1/3 257/1/3 256/1/3
f 264/1/3 257/1/3 263/1/3
f 265/1/3 259/1/3 258/1/3
f 266/2/3 260/2/3 259/2/3
f 266/1/3 259/1/3 265/1/3
f 267/2/3 260/2/3 266/2/3
f 268/1/3 263/1/3 255/1/3
f 269/1/3 263/1/3 268/1/3
f 273/2/3 271/2/3 270/2/3
f 273/2/3 272/2/3 271/2/3
f 274/2/3 272/2/3 273/2/3
f 278/2/3 276/2/3 275/2/3
f 278/2/3 277/2/3 276/2/3
f 279/2/3 277/2/3 278/2/3
f 282/2/3 281/2/3 280/2/3
f 283/2/3 281/2/3 282/2/3
f 286/2/3 285/2/3 284/2/3
f 287/2/3 285/2/3 286/2/3
f 290/2/3 289/2/3 288/2/3
f 291/2/3 289/2/3 290/2/3
f 292/2/3 289/2/3 291/2/3
f 293/2/3 289/2/3 292/2/3
f 294/2/4 295/2/4 296/2/4
f 296/2/4 295/2/4 297/2/4
f 297/2/4 295/2/4 298/2/4
f 298/2/4 295/2/4 299/2/4
f 300/2/4 301/2/4 302/2/4
f 302/2/4 301/2/4 303/2/4
f 304/1/4 305/1/4 306/1/4
f 306/1/4 305/1/4 307/1/4
f 308/2/4 309/2/4 310/2/4
f 310/2/4 309/2/4 311/2/4
f 312/1/4 313/1/4 316/1/4
f 316/1/4 313/1/4 317/1/4
f 314/1/4 315/1/4 318/1/4
f 318/1/4 315/1/4 319/1/4
f 320/2/4 321/2/4 322/2/4
f 322/2/4 321/2/4 323/2/4
f 323/2/4 321/2/4 324/2/4
f 324/2/4 321/2/4 325/2/4
f 323/2/4 324/2/4 327/2/4
f 327/2/4 324/2/4 328/2/4
f 326/1/4 327/1/4 331/1/4
f 328/2/4 329/2/4 332/2/4
f 327/2/4 328/2/4 332/2/4
f 331/1/4 327/1/4 332/1/4
f 332/2/4 329/2/4 333/2/4
f 330/1/4 331/1/4 337/1/4
f 336/1/4 337/1/4 341/1/4
f 337/1/4 331/1/4 342/1/4
f 341/1/4 337/1/4 342/1/4
f 342/1/4 331/1/4 343/1/4
f 334/2/4 335/2/4 346/2/4
f 346/2/4 335/2/4 347/2/4
f 340/1/4 341/1/4 348/1/4
f 341/1/4 342/1/4 348/1/4
f 348/1/4 342/1/4 349/1/4
f 343/1/4 344/1/4 350/1/4
f 344/2/4 345/2/4 351/2/4
f 350/1/4 344/1/4 351/1/4
f 338/1/4 339/1/4 352/1/4
f 352/1/4 339/1/4 353/1/4
f 340/1/4 348/1/4 354/1/4
f 354/1/4 348/1/4 355/1/4
f 355/1/4 348/1/4 356/1/4
f 351/2/4 345/2/4 357/2/4
f 357/2/4 345/2/4 358/2/4
f 355/2/4 356/2/4 360/2/4
f 358/2/4 359/2/4 360/2/4
f 357/2/4 358/2/4 360/2/4
f 356/2/4 357/2/4 360/2/4
f 360/2/4 359/2/4 361/2/4
f 362/2/4 363/2/4 364/2/4
f 364/2/4 363/2/4 365/2/4
f 364/2/4 365/2/4 369/2/4
f 365/2/4 366/2/4 369/2/4
f 369/2/4 366/2/4 370/2/4
f 367/1/4 368/1/4 371/1/4
f 371/1/4 368/1/4 372/1/4
f 370/2/4 366/2/4 374/2/4
f 373/2/4 374/2/4 375/2/4
f 375/2/4 374/2/4 376/2/4
f 374/2/4 366/2/4 377/2/4
f 376/2/4 374/2/4 377/2/4
f 377/2/4 366/2/4 378/2/4
f 376/2/4 377/2/4 379/2/4
f 379/2/4 377/2/4 380/2/4
f 381/2/4 382/2/4 383/2/4
f 383/2/4 382/2/4 384/2/4
f 385/2/4 386/2/4 387/2/4
f 387/2/4 386/2/4 388/2/4
f 389/2/4 390/2/4 391/2/4
f 391/2/4 390/2/4 392/2/4
f 393/2/4 394/2/4 395/2/4
f 395/2/4 394/2/4 396/2/4
f 396/2/4 394/2/4 397/2/4
f 397/2/4 394/2/4 398/2/4
f 401/1/5 400/1/5 399/1/5
f 402/1/5 400/1/5 401/1/5
f 405/1/5 404/1/5 403/1/5
f 406/1/5 404/1/5 405/1/5
f 409/1/5 408/1/5 407/1/5
f 410/1/5 408/1/5 409/1/5
f 413/1/5 412/1/5 411/1/5
f 414/1/5 412/1/5 413/1/5
f 417/2/5 416/2/5 415/2/5
f 418/2/5 416/2/5 417/2/5
f 421/2/5 420/2/5 419/2/5
f 422/2/5 420/2/5 421/2/5
f 425/1/5 424/1/5 423/1/5
f 426/1/5 424/1/5 425/1/5
f 429/2/5 428/2/5 427/2/5
f 430/2/5 428/2/5 429/2/5
f 433/2/5 432/2/5 431/2/5
f 434/2/5 432/2/5 433/2/5
f 439/1/5 436/1/5 435/1/5
f 440/1/5 436/1/5 439/1/5
f 441/2/5 438/2/5 437/2/5
f 442/2/5 438/2/5 441/2/5
f 447/2/5 444/2/5 443/2/5
f 448/2/5 444/2/5 447/2/5
f 449/1/5 446/1/5 445/1/5
f 450/1/5 446/1/5 449/1/5
f 453/2/5 452/2/5 451/2/5
f 454/2/5 452/2/5 453/2/5
f 457/2/5 456/2/5 455/2/5
f 458/2/5 456/2/5 457/2/5
f 461/2/5 460/2/5 459/2/5
f 462/2/5 460/2/5 461/2/5
f 465/2/5 464/2/5 463/2/5
f 466/2/5 464/2/5 465/2/5
f 470/1/5 468/1/5 467/1/5
f 471/1/5 468/1/5 470/1/5
f 475/2/5 474/2/5 473/2/5
f 476/2/5 474/2/5 475/2/5
f 477/1/5 470/1/5 469/1/5
f 478/1/5 470/1/5 477/1/5
f 479/1/5 472/1/5 471/1/5
f 480/1/5 472/1/5 479/1/5
f 481/1/5 479/1/5 478/1/5
f 482/1/5 479/1/5 481/1/5
f 486/2/5 484/2/5 483/2/5
f 487/2/5 484/2/5 486/2/5
f 491/2/5 486/2/5 485/2/5
f 492/2/5 486/2/5 491/2/5
f 493/2/5 489/2/5 488/2/5
f 494/2/5 489/2/5 493/2/5
f 495/2/5 491/2/5 490/2/5
f 496/2/5 491/2/5 495/2/5
f 497/2/5 494/2/5 493/2/5
f 498/2/5 494/2/5 497/2/5
f 501/2/5 500/2/5 499/2/5
f 502/2/5 500/2/5 501/2/5
f 505/2/5 504/2/5 503/2/5
f 506/2/5 504/2/5 505/2/5
f 511/2/5 508/2/5 507/2/5
f 512/2/5 508/2/5 511/2/5
f 513/2/5 510/2/5 509/2/5
f 514/2/5 510/2/5 513/2/5
f 515/2/5 510/2/5 514/2/5
f 518/2/5 517/2/5 516/2/5
f 519/2/5 517/2/5 518/2/5
f 522/2/5 521/2/5 520/2/5
f 523/2/5 521/2/5 522/2/5
f 524/1/6 525/1/6 526/1/6
f 526/1/6 525/1/6 527/1/6
f 528/1/6 529/1/6 530/1/6
f 530/1/6 529/1/6 531/1/6
f 532/1/6 533/1/6 534/1/6
f 534/1/6 533/1/6 535/1/6
f 536/1/6 537/1/6 538/1/6
f 536/1/6 538/1/6 539/1/6
f 539/1/6 538/1/6 540/1/6
f 541/1/6 542/1/6 543/1/6
f 543/1/6 542/1/6 544/1/6
f 545/2/6 546/2/6 547/2/6
f 547/2/6 546/2/6 548/2/6
f 549/2/6 550/2/6 553/2/6
f 553/2/6 550/2/6 554/2/6
f 551/2/6 552/2/6 555/2/6
f 555/2/6 552/2/6 556/2/6
f 557/2/6 558/2/6 561/2/6
f 561/2/6 558/2/6 562/2/6
f 559/2/6 560/2/6 565/2/6
f 565/2/6 560/2/6 566/2/6
f 563/2/6 564/2/6 567/2/6
f 567/2/6 564/2/6 568/2/6
f 569/2/6 570/2/6 571/2/6
f 571/2/6 570/2/6 572/2/6
f 573/2/6 574/2/6 575/2/6
f 575/2/6 574/2/6 576/2/6
f 572/2/6 570/2/6 579/2/6
f 579/2/6 570/2/6 580/2/6
f 577/2/6 578/2/6 581/2/6
f 581/2/6 578/2/6 582/2/6
f 583/2/6 584/2/6 585/2/6
f 585/2/6 584/2/6 586/2/6
f 583/2/6 585/2/6 587/2/6
f 586/2/6 584/2/6 588/2/6
f 583/2/6 587/2/6 589/2/6
f 587/2/6 588/2/6 589/2/6
f 588/2/6 584/2/6 590/2/6
f 589/2/6 588/2/6 590/2/6
f 591/2/6 592/2/6 593/2/6
f 593/2/6 592/2/6 594/2/6
